<svg width="238" height="89" viewBox="0 0 238 89" fill="none" xmlns="http://www.w3.org/2000/svg">
<path d="M155.526 0.706C175.831 -3.61416 180.907 12.9465 180.907 21.7668C197.324 17.8781 198.367 31.1274 196.837 38.2381C221.678 34.1339 221.408 52.3686 218.168 61.999C239.769 58.1108 239.229 78.3796 236.259 89H3.05176e-05C2.25012 84.1398 9.7204 74.7435 21.6008 76.0395C36.4514 77.6596 41.5816 66.5892 54.5421 52.0086C67.5026 37.4281 85.3233 33.6479 120.695 45.2584C148.992 54.5467 150.846 44.4483 148.236 38.2381C146.886 41.7482 141.323 47.3644 129.875 41.7482C115.564 34.728 130.145 6.1062 155.526 0.706Z" fill="white"/>
<path d="M103.741 44.357C113.99 42.1726 116.552 50.546 116.552 55.0057C124.838 53.0395 125.365 59.7386 124.592 63.3339C137.13 61.2587 136.994 70.4785 135.359 75.3478C146.261 73.3819 145.989 83.6301 144.49 89H25.2422C26.3779 86.5426 30.1484 81.7916 36.1448 82.4469C43.6404 83.2661 46.2297 77.6687 52.7713 70.2965C59.3129 62.9243 68.3075 61.013 86.1606 66.8834C100.443 71.5798 101.379 66.4739 100.061 63.3339C99.38 65.1086 96.5726 67.9483 90.7942 65.1086C83.5712 61.5591 90.9305 47.0874 103.741 44.357Z" fill="#FFF2F2"/>
</svg>
