<svg width="238" height="89" viewBox="0 0 238 89" fill="none" xmlns="http://www.w3.org/2000/svg">
<path d="M82.2241 0.706C61.9193 -3.61416 56.8431 12.9465 56.8431 21.7668C40.4262 17.8781 39.3826 31.1274 40.9129 38.2381C16.0719 34.1339 16.3417 52.3686 19.5817 61.999C-2.0191 58.1108 -1.47908 78.3796 1.49103 89H237.75C235.5 84.1398 228.03 74.7435 216.149 76.0395C201.299 77.6596 196.168 66.5892 183.208 52.0086C170.247 37.4281 152.427 33.6479 117.055 45.2584C88.7583 54.5467 86.9043 44.4483 89.5144 38.2381C90.8644 41.7482 96.4266 47.3644 107.875 41.7482C122.186 34.728 107.605 6.1062 82.2241 0.706Z" fill="white"/>
<path d="M134.009 44.357C123.76 42.1726 121.198 50.546 121.198 55.0057C112.912 53.0395 112.385 59.7386 113.158 63.3339C100.62 61.2587 100.756 70.4785 102.391 75.3478C91.4887 73.3819 91.7613 83.6301 93.2604 89H212.508C211.372 86.5426 207.602 81.7916 201.605 82.4469C194.11 83.2661 191.52 77.6687 184.979 70.2965C178.437 62.9243 169.442 61.013 151.589 66.8834C137.307 71.5798 136.371 66.4739 137.689 63.3339C138.37 65.1086 141.177 67.9483 146.956 65.1086C154.179 61.5591 146.82 47.0874 134.009 44.357Z" fill="#FFF2F2"/>
</svg>
