<svg width="194" height="139" viewBox="0 0 194 139" fill="none" xmlns="http://www.w3.org/2000/svg">
<path d="M145.658 135.653C143.881 136.477 142.557 136.898 141.004 137.384C130.345 140.721 117.811 138.996 109.49 131.192C96.1053 118.638 101.675 99.5033 101.991 83.5776C102.03 81.5818 102.033 76.8638 98.652 78.2677C97.9644 78.5534 97.3766 79.0384 96.9344 79.6378C91.4779 87.0366 89.6912 97.1402 92.8776 105.828C89.6854 104.589 87.3149 101.721 86.0634 98.5334C84.8119 95.3453 84.5657 91.8509 84.6497 88.4273C84.7024 86.3096 84.8786 84.1984 84.9971 82.0849C85.0959 80.3195 85.4879 78.2331 84.359 76.6959C82.7049 74.444 79.334 75.9804 77.8725 77.7012C76.5963 79.2063 75.6008 93.9908 76.3888 93.9908H69.0616C68.5157 93.8294 68.9562 92.8892 68.9685 92.4511C69.0797 88.2429 69.2123 83.1783 68.9685 79.0178C68.7932 76.0298 68.2036 73.409 65.7582 71.4955C65.3169 71.1505 64.6919 71.0796 64.4219 70.6713C66.6409 70.2143 69.0616 69.964 71.2839 70.5387C72.3353 70.8112 73.3456 71.2674 74.1517 72.0101C74.8606 72.6638 75.4279 74.551 76.1747 74.747C77.4065 72.4119 79.8437 70.8952 82.2257 69.9393C82.7008 69.7483 89.4779 68.1032 89.3561 68.8491C89.1412 70.169 92.3466 78.4917 93.0028 78.5073C95.5585 74.3723 102.506 64.4128 107.518 71.2204C110.207 74.8729 109.735 80.7139 109.705 84.9831C109.657 91.9563 108.896 98.8092 108.285 105.741C107.744 111.875 108.141 118.084 111.875 123.235C115.48 128.212 121.156 131.138 126.892 132.955C129.645 133.827 132.457 134.428 135.313 134.843C138.465 135.302 143.857 135.653 145.658 135.653V135.653Z" fill="#3B2721"/>
<path d="M0.0226764 111.951C-0.223512 111.733 1.61096 110.065 1.8448 109.748C2.75875 108.507 3.73774 105.934 3.73774 104.418V96.4714L8.20289 100.585L12.6104 96.678C12.5915 100.332 12.7792 104 12.1995 107.616C12.1452 107.957 16.9142 106.57 17.3382 106.336C18.9232 105.464 20.1212 104.207 21.2418 102.813C23.7317 99.713 24.8301 95.0321 25.735 91.21C27.7473 82.7112 27.7992 73.7487 25.8684 65.2301C24.7148 60.14 23.2015 54.355 18.057 51.9162C17.2106 51.5152 15.2468 50.859 14.3675 50.859H10.5495C12.4721 53.9623 13.1308 57.721 13.1176 61.3249C13.1135 62.364 12.8113 72.736 13.0262 72.736H3.94523C3.80937 68.7517 4.08108 64.7658 3.98145 60.7823C3.89994 57.4896 4.12966 51.064 0.230166 49.6173C0.0646684 49.3802 1.35572 48.8656 1.56321 48.7865C6.52238 46.8977 14.0571 46.0908 19.2608 46.9974C24.6736 47.9401 29.1454 51.232 32.0173 55.8717C34.0189 59.1059 35.2153 62.7855 35.9448 66.5179C37.58 74.8858 36.9254 83.6152 34.6752 91.8391C33.6435 95.6101 32.2643 99.3219 30.1499 102.61C27.1907 107.211 21.8264 111.95 16.0192 111.95H0.0226764V111.951Z" fill="#3B2721"/>
<path d="M136.98 79.8429C136.366 80.3649 135.657 80.7824 134.959 81.1908C134.273 81.5918 131.347 82.7782 131.137 83.4551C131.878 81.0582 131.784 78.6087 131.235 76.1839C130.68 73.7277 126.61 75.5128 125.309 76.57C123.253 78.2439 123.396 79.8396 123.22 82.3246C122.979 85.707 123.218 89.1874 122.816 92.5492H115.386C115.731 90.4669 115.526 88.3599 115.594 86.2562C115.712 82.5806 116.234 78.7948 115.794 75.111C115.553 73.074 115.031 71.2601 113.734 69.6413C117.678 68.7727 121.647 69.0905 123.537 73.1431C123.364 72.771 126.851 70.3371 127.256 70.0802C128.525 69.2758 129.966 68.608 131.493 68.5718C134.346 68.5034 136.938 70.8525 138.114 73.3029C138.915 74.9727 139.026 77.0542 138.049 78.6268C137.755 79.0986 137.388 79.4946 136.978 79.8437L136.98 79.8429Z" fill="#3B2721"/>
<path d="M62.3488 99.9827H54.9187L55.3312 88.2183C49.3272 88.7551 44.5886 92.4587 44.186 98.7443C41.7859 98.7443 39.375 98.8118 36.9766 98.7097C37.1972 95.1717 38.3096 91.3372 40.5302 88.5197C43.5388 84.7025 48.0872 85.6099 52.3926 85.0887C53.3921 84.9676 54.4543 84.7074 55.1089 83.9433C55.7758 83.1653 55.8606 82.0389 55.7149 81.0245C55.5132 79.6297 54.894 78.2448 53.7783 77.3835C52.7516 76.5898 51.4004 76.3107 50.1036 76.3568C48.3729 76.4177 46.5911 76.8986 45.0127 77.6017C44.2906 77.9237 40.5508 79.5391 40.4742 80.3773C40.7213 77.6915 41.1815 74.6582 43.5817 73.0641C46.2584 71.2865 50.4099 70.8542 53.5486 71.004C56.3308 71.1366 59.1912 72.1345 60.9828 74.2662C65.1055 79.1719 62.9383 87.1356 62.5571 92.8662C62.4007 95.2219 62.3875 97.6245 62.3488 99.9843V99.9827Z" fill="#3B2721"/>
<path d="M124.884 25.0882C114.536 29.5237 114.047 44.3839 125.491 47.1266C135.4 49.502 139.142 39.9649 148.169 39.2922C150.004 39.1563 151.864 39.3235 153.647 39.7113C149.231 29.1441 136.465 20.1249 124.884 25.0882ZM144.669 37.2362C140.572 37.2362 135.573 42.6087 131.609 43.7812C120.581 47.0443 115.743 32.9481 125.512 27.9865C134.226 23.5592 144.768 29.6069 149.313 37.2371H144.669V37.2362Z" fill="#F80004"/>
<path d="M63.5882 111.952C62.6965 109.451 62.3433 106.969 62.1333 104.327L54.653 104.312C52.1014 107.808 45.4057 108.038 44.3946 103.078H36.7578C36.9488 110.914 44.5963 115.243 51.4748 111.294L54.7139 108.857V111.952H63.5882ZM38.6853 106.423C38.7883 105.919 39.8273 105.23 40.2819 105.156C41.4535 104.968 42.8442 106.498 43.908 106.87C43.6536 107.365 43.5358 107.026 43.2649 107.015C41.7269 106.956 40.1946 106.714 38.6853 106.423ZM41.2748 108.953C43.2336 108.625 45.1743 109.369 47.0401 109.873C45.4493 111.209 42.6276 110.255 41.2748 108.953Z" fill="#F80004"/>
<path d="M133.516 52.2989C130.763 57.3659 132.49 63.0562 139.076 62.1909C143.435 61.6194 144.927 55.729 146.725 52.5047C147.873 50.4471 149.728 47.7637 151.992 46.9321C146.09 42.3789 136.81 46.2388 133.516 52.298V52.2989ZM144.604 51.4129C143.262 53.8073 142.614 57.8896 139.895 59.0909C138.04 59.9126 135.601 59.3799 135.293 57.1345C134.494 51.3083 142.818 46.014 148.071 47.1454C146.841 48.5113 145.513 49.7892 144.604 51.4137V51.4129Z" fill="#3B2721"/>
<path d="M122.827 96.8828H115.397C114.938 101.924 115.608 107.211 113.539 111.949H123.239C122.263 107.006 122.585 101.889 122.827 96.8828ZM120.143 98.5361L117.462 101.629C117.392 99.7127 117.956 98.2603 120.143 98.5361ZM117.257 108.647C116.876 105.97 117.886 103.622 119.736 101.737C119.933 101.537 120.003 101.345 120.349 101.425C120.177 104.065 119.477 106.981 117.257 108.647ZM120.752 109.875L118.907 110.091C118.554 109.748 120.222 108.213 120.454 107.825C120.892 107.82 120.772 109.512 120.752 109.875Z" fill="#F80004"/>
<path d="M68.7484 98.3203L68.3359 111.942H76.1786L76.3852 98.3203H68.7484ZM70.8143 103.893C72.3482 105.155 73.0621 107.107 73.9085 108.845C71.8559 108.524 70.7213 105.769 70.8143 103.893ZM73.5825 104.122C72.6167 102.923 71.7933 101.609 71.0201 100.28C71.4681 100.026 72.6702 100.357 73.0242 100.651C73.9357 101.41 73.6961 103.464 74.1144 104.51C73.5742 104.644 73.7521 104.333 73.5825 104.122Z" fill="#F80004"/>
<path d="M3.73438 77.4844C4.57092 77.7388 7.8817 81.7989 8.19129 81.8293C8.85493 81.8944 11.0929 79.2159 11.7812 78.6165C12.1641 78.283 12.6227 78.0039 13.022 77.691V82.5415L8.58487 86.7687C7.81007 85.8087 3.73438 82.7293 3.73438 81.7157V77.4844Z" fill="#F80004"/>
<path d="M3.73438 90.0703L8.40619 94.3897L12.8154 90.4836V94.7141L8.17153 99.148L3.73438 94.9208V90.0703Z" fill="#F80004"/>
<path d="M3.7352 83.6727L8.40702 88.198L12.6095 84.3923L13.022 84.6039L12.6597 88.7793L8.55358 92.7282C8.00027 92.8253 4.40707 88.8896 3.73438 88.3157V83.6719L3.7352 83.6727Z" fill="#3B2721"/>
<path d="M13.0212 73.9766V75.6274H3.94022L3.73438 73.9766H13.0212Z" fill="#3B2721"/>
<path d="M76.3868 95.2344H68.75V96.8852H76.3868V95.2344Z" fill="#3B2721"/>
<path d="M122.829 93.7891H115.398V95.4399H122.829V93.7891Z" fill="#3B2721"/>
<path d="M44.1879 99.9844H36.7578V101.635H44.1879V99.9844Z" fill="#3B2721"/>
<path d="M62.3508 101.42L62.1457 103.07H54.9231C54.9733 102.601 54.6967 101.404 55.2599 101.227L62.3508 101.419V101.42Z" fill="#3B2721"/>
<path d="M11.784 77.0703L8.37932 80.3696L5.17969 77.0703H11.784Z" fill="#F80004"/>
<path d="M154.918 23.1781C157.074 18.3795 164.311 17.6961 163.083 11.1989C161.754 4.17219 150.985 3.74403 147.041 9.12066C141.223 17.0539 148.551 27.113 154.53 32.4608C153.736 29.3649 153.574 26.1702 154.919 23.1781H154.918ZM152.946 28.7375C151.338 27.1114 149.843 25.0192 148.787 22.9854C146.274 18.1424 145.308 10.4743 151.386 7.8222C154.78 6.3426 160.855 7.40557 161.316 11.7497C161.741 15.7669 157.957 16.7155 155.75 19.0077C153.143 21.7158 152.654 25.1295 152.946 28.7367V28.7375Z" fill="#F80004"/>
<path d="M160.179 10.3959C158.676 7.83848 154.694 7.29094 152.088 8.26581C149.099 9.38231 147.586 11.9274 147.448 15.0603C147.252 19.5254 149.741 23.6843 152.254 27.1737L152.358 25.0799C152.646 22.2467 153.818 19.7214 155.986 17.8647C157.228 16.8001 159.341 15.9512 160.104 14.4559C160.758 13.169 160.925 11.6663 160.179 10.3967V10.3959ZM158.025 9.56756C158.44 9.71413 158.656 10.1695 158.51 10.5828C158.364 10.9978 157.909 11.2143 157.494 11.0678C157.08 10.9212 156.864 10.4667 157.01 10.0517C157.157 9.63837 157.611 9.421 158.026 9.56756H158.025ZM155.065 8.64786C155.48 8.79442 155.696 9.24974 155.55 9.6639C155.403 10.0789 154.948 10.2954 154.534 10.1489C154.119 10.0023 153.903 9.5478 154.049 9.13282C154.196 8.71784 154.65 8.50047 155.065 8.64703V8.64786ZM151.981 9.85657C152.394 10.0031 152.612 10.4576 152.465 10.8718C152.319 11.2868 151.863 11.5033 151.45 11.3576C151.035 11.211 150.819 10.7557 150.965 10.3415C151.112 9.9282 151.566 9.71083 151.981 9.85739V9.85657ZM148.93 13.127C149.076 12.712 149.532 12.4955 149.946 12.642C150.361 12.7886 150.576 13.2431 150.43 13.6581C150.283 14.0731 149.829 14.2904 149.415 14.1439C149.001 13.9973 148.783 13.542 148.93 13.1278V13.127ZM148.763 17.3542C148.35 17.2076 148.133 16.7531 148.279 16.3382C148.426 15.9232 148.881 15.7066 149.294 15.8524C149.709 15.9989 149.926 16.4543 149.779 16.8692C149.633 17.2842 149.178 17.5008 148.763 17.3542H148.763ZM149.122 19.933C148.817 19.8251 148.657 19.4909 148.765 19.1862C148.873 18.8816 149.207 18.7218 149.512 18.8297C149.816 18.9375 149.976 19.2718 149.868 19.5765C149.76 19.8811 149.426 20.0409 149.122 19.933ZM152.142 20.4122C152.142 20.4122 152.142 20.4114 152.142 20.4097C152.142 20.3291 152.135 18.2821 153.807 18.4987C153.807 18.4987 154.216 20.0491 152.143 20.4122H152.142ZM152.376 17.3311C152.376 17.3311 152.376 17.3303 152.376 17.3262C152.398 17.2216 152.784 15.397 154.884 15.7412C155.18 15.7898 155.51 15.8804 155.879 16.0261C155.879 16.0261 154.933 18.1595 152.376 17.3311H152.376ZM157.886 14.619C157.878 14.6297 157.871 14.6404 157.862 14.6511C157.742 14.8075 157.591 14.945 157.408 15.0183C156.974 15.1928 156.418 14.9096 156.304 14.4568C156.148 13.8384 156.813 13.2538 157.404 13.4629L157.415 13.4671C157.423 13.421 157.427 13.3715 157.429 13.3147C157.456 12.5119 156.624 12.1299 155.932 12.0904C154.786 12.0245 153.658 12.5819 152.876 13.4242C152.095 14.2657 151.634 15.3658 151.397 16.4888C151.161 17.6012 151.053 18.8313 151.153 19.9602C151.205 20.5522 151.285 21.1425 151.339 21.7345C151.364 22.0194 151.387 22.3043 151.398 22.59C151.406 22.7918 151.311 23.2734 151.397 23.4439C150.31 21.2949 150.12 18.502 150.68 16.1776C151.087 14.4905 152.042 12.8858 153.512 11.9628C154.196 11.533 154.995 11.2563 155.802 11.2942C156.609 11.3321 157.418 11.7133 157.871 12.3827C158.315 13.0406 158.354 13.9792 157.886 14.619ZM159.297 13.3979C158.947 13.2736 158.762 12.8882 158.887 12.5383C159.011 12.1867 159.396 12.0031 159.746 12.1266C160.096 12.2501 160.282 12.6363 160.157 12.9879C160.033 13.3378 159.648 13.5222 159.297 13.3979Z" fill="#3B2721"/>
<path d="M146.932 35.5827C142.105 29.3184 131.995 24.6581 124.762 29.7211C117.799 34.5938 121.918 44.8415 130.563 42.9527C133.556 42.2981 135.558 40.1977 138.091 38.7156C140.87 37.0894 143.954 35.9186 147.237 36.2018C147.331 35.8445 147.091 35.7893 146.932 35.5827ZM139.009 30.7412C139.376 30.7412 139.676 31.0401 139.676 31.4082C139.676 31.7762 139.377 32.0751 139.009 32.0751C138.641 32.0751 138.342 31.7778 138.342 31.4082C138.342 31.0385 138.641 30.7412 139.009 30.7412ZM136.059 29.7565C136.528 29.7565 136.91 30.136 136.91 30.6045C136.91 31.073 136.528 31.4551 136.059 31.4551C135.591 31.4551 135.209 31.0755 135.209 30.6045C135.209 30.1336 135.591 29.7565 136.059 29.7565ZM132.162 29.5663C132.813 29.5663 133.339 30.0924 133.339 30.7429C133.339 31.3933 132.813 31.917 132.162 31.917C131.512 31.917 130.988 31.3909 130.988 30.7429C130.988 30.0949 131.514 29.5663 132.162 29.5663ZM123.337 36.3402C122.858 36.3402 122.469 35.9523 122.469 35.4715C122.469 34.9906 122.859 34.6045 123.337 34.6045C123.816 34.6045 124.206 34.9923 124.206 35.4715C124.206 35.9507 123.816 36.3402 123.337 36.3402ZM125.296 40.0618C124.871 40.3096 124.324 40.1631 124.078 39.7357C123.831 39.3084 123.977 38.7633 124.405 38.518C124.832 38.2701 125.377 38.4167 125.624 38.844C125.869 39.2714 125.723 39.8164 125.295 40.0618H125.296ZM130.225 41.5974C129.577 41.5974 129.051 41.0713 129.051 40.4233C129.051 39.7753 129.577 39.2467 130.225 39.2467C130.873 39.2467 131.402 39.7728 131.402 40.4233C131.402 41.0737 130.875 41.5974 130.225 41.5974ZM127.525 38.0758C124.852 37.94 124.004 34.01 125.99 32.3937C127.355 31.2789 129.094 31.3538 129.781 32.98C129.794 33.0047 129.804 33.0277 129.81 33.0524C129.845 33.1348 129.876 33.222 129.903 33.3126C129.891 33.3044 129.878 33.2961 129.868 33.2896C129.873 33.3307 129.876 33.3744 129.876 33.4172C129.876 34.0075 129.397 34.4859 128.807 34.4859C128.218 34.4859 127.736 34.0067 127.736 33.4172C127.736 33.3472 127.742 33.2772 127.756 33.2105C125.651 33.2805 125.519 36.4694 127.738 36.6283C129.355 36.7436 131.254 34.6737 132.654 33.898C135.025 32.5856 138.358 31.8445 140.85 33.2089C141.136 33.3661 141.359 33.1899 141.252 33.7251C138.241 33.1414 135.088 33.7482 132.522 35.4172C130.889 36.4777 129.742 38.1911 127.525 38.0758ZM134.115 38.6909C133.465 38.6909 132.939 38.1648 132.939 37.5168C132.939 36.8688 133.465 36.3402 134.115 36.3402C134.766 36.3402 135.29 36.8663 135.29 37.5168C135.29 38.1672 134.763 38.6909 134.115 38.6909ZM137.931 36.5798C137.681 36.5361 137.452 36.3854 137.316 36.1483C137.068 35.7235 137.215 35.1759 137.642 34.9305C138.069 34.6827 138.614 34.8293 138.861 35.2566C138.952 35.4139 138.989 35.5868 138.977 35.7539C139.03 36.3089 138.45 36.7716 137.93 36.5798H137.931ZM141.466 35.3892C141.25 35.3892 141.072 35.2138 141.072 34.9972C141.072 34.7807 141.25 34.6053 141.466 34.6053C141.683 34.6053 141.858 34.7807 141.858 34.9972C141.858 35.2138 141.683 35.3892 141.466 35.3892Z" fill="#3B2721"/>
<path d="M137.492 52.9835C136.084 55.0329 135.096 58.7833 138.862 58.2737C141.393 57.9328 142.507 52.953 143.696 50.9325C144.311 49.8884 145.164 49.0066 145.795 47.9766C142.714 48.4533 139.273 50.3849 137.492 52.9835ZM138.572 55.405C138.343 54.2268 139.051 53.3598 140.221 53.3408C140.167 54.4285 139.947 55.7023 138.572 55.405ZM140.221 52.2754C140.221 52.0259 140.423 51.8234 140.673 51.8234C140.922 51.8234 141.125 52.0259 141.125 52.2754C141.125 52.5249 140.922 52.7274 140.673 52.7274C140.423 52.7274 140.221 52.5249 140.221 52.2754ZM141.445 51.8464C141.196 51.8464 140.993 51.6439 140.993 51.3944C140.993 51.1449 141.196 50.9424 141.445 50.9424C141.695 50.9424 141.895 51.1449 141.895 51.3944C141.895 51.6439 141.692 51.8464 141.445 51.8464ZM142.26 50.9654C142.048 50.9654 141.874 50.7917 141.874 50.5792C141.874 50.3668 142.048 50.1931 142.26 50.1931C142.473 50.1931 142.647 50.3668 142.647 50.5792C142.647 50.7917 142.473 50.9654 142.26 50.9654Z" fill="#3B2721"/>
<path d="M139.609 11.8623C139.379 8.11592 141.555 3.45398 137.581 0.92046C133.466 -1.70198 127.896 1.75701 125.57 5.30822C121.153 12.0516 125.346 19.052 132.384 21.2298C135.267 22.1223 137.827 21.9387 140.744 22.2705C142.133 22.427 143.471 22.7934 144.851 22.9827C141.97 20.0277 139.867 16.0557 139.61 11.8631L139.609 11.8623ZM131.999 19.2331C127.722 17.4464 124.518 12.9895 126.133 8.25342C127.271 4.91217 132.693 0.470899 136.273 2.46264C139.402 4.2049 137.729 7.70752 137.585 10.423C137.392 14.0286 138.917 18.2286 141.397 20.8379C138.199 20.4229 135.023 20.4945 131.999 19.2315L131.999 19.2331Z" fill="#3B2721"/>
<path d="M138.593 17.9937C137.409 15.5968 136.791 12.7603 136.992 10.0786C137.157 7.86371 138.581 4.91274 136.335 3.23471C133.313 0.977019 128.203 5.11941 126.952 7.89253C124.718 12.8418 128.477 17.4478 133.068 18.9965C135.261 19.7359 137.441 19.885 139.726 20.0126C139.813 19.9335 138.717 18.2456 138.593 17.9928V17.9937ZM136.393 16.5626C135.216 16.0398 134.322 13.9962 136.038 13.5886C137.042 15.083 136.393 16.5626 136.393 16.5626ZM133.838 13.7055C133.06 12.5676 133.851 10.3972 135.442 10.7315C135.342 12.6607 133.838 13.7055 133.838 13.7055ZM135.153 3.53606C135.626 3.53606 136.007 3.91893 136.007 4.39155C136.007 4.86416 135.625 5.24538 135.153 5.24538C134.682 5.24538 134.298 4.86334 134.298 4.39155C134.298 3.91975 134.681 3.53606 135.153 3.53606ZM132.297 3.98398C132.77 3.98398 133.153 4.36685 133.153 4.83946C133.153 5.31208 132.77 5.69495 132.297 5.69495C131.824 5.69495 131.443 5.31208 131.443 4.83946C131.443 4.36685 131.825 3.98398 132.297 3.98398ZM130.231 5.67189C130.704 5.67189 131.087 6.05476 131.087 6.52738C131.087 6.99999 130.704 7.38121 130.231 7.38121C129.759 7.38121 129.377 6.99917 129.377 6.52738C129.377 6.05558 129.759 5.67189 130.231 5.67189ZM128.64 8.17247C129.112 8.17247 129.495 8.55452 129.495 9.02631C129.495 9.4981 129.112 9.8818 128.64 9.8818C128.167 9.8818 127.784 9.49893 127.784 9.02631C127.784 8.5537 128.167 8.17247 128.64 8.17247ZM128.516 12.7875C128.044 12.7875 127.662 12.4046 127.662 11.932C127.662 11.4594 128.044 11.0765 128.516 11.0765C128.988 11.0765 129.372 11.4594 129.372 11.932C129.372 12.4046 128.99 12.7875 128.516 12.7875ZM129.711 15.4453C129.238 15.4453 128.857 15.0625 128.857 14.5898C128.857 14.1172 129.239 13.7344 129.711 13.7344C130.183 13.7344 130.566 14.1172 130.566 14.5898C130.566 15.0625 130.183 15.4453 129.711 15.4453ZM132.155 17.6347C131.682 17.6347 131.301 17.2526 131.301 16.7808C131.301 16.309 131.683 15.9254 132.155 15.9254C132.626 15.9254 133.01 16.3082 133.01 16.7808C133.01 17.2535 132.627 17.6347 132.155 17.6347ZM137.227 17.9887C134.132 17.4395 130.762 14.4161 130.699 11.13C130.668 9.50222 131.412 7.54918 132.957 6.80403C133.521 6.53232 134.202 6.46562 134.774 6.7184C135.346 6.97117 135.772 7.57553 135.726 8.19965C135.679 8.81635 135.189 9.34166 134.607 9.5508C134.208 9.69489 133.72 9.69489 133.405 9.41247C133.034 9.08148 133.071 8.40384 133.476 8.11566C133.89 7.82089 134.505 8.02921 134.73 8.46065C134.968 8.19553 134.844 7.76161 134.575 7.56977C134.293 7.36886 133.908 7.37627 133.579 7.48166C130.656 8.42113 131.685 12.9554 133.136 14.6804C134.196 15.9402 135.67 16.752 137.003 17.6808C137.146 17.7796 137.297 17.6849 137.227 17.9879V17.9887Z" fill="#3B2721"/>
<path d="M133.951 7.4079C133.968 7.40625 133.984 7.40625 134.001 7.40625C133.975 7.40625 133.949 7.4079 133.922 7.41037C133.932 7.4079 133.941 7.4079 133.951 7.4079Z" fill="#3B2721"/>
<path d="M134.117 7.41406C134.172 7.41818 134.225 7.42806 134.275 7.43959C134.225 7.42806 134.172 7.41983 134.117 7.41406Z" fill="#3B2721"/>
<path d="M191.624 120.193C190.896 112.86 191.422 104.807 191.746 96.8672H173.606C172.38 102.314 168.792 107.655 163.192 109.259C160.012 110.17 156.356 109.556 153.694 107.573C150.262 105.018 149.623 100.895 149.846 96.8672H141.783C141.095 106.345 140.776 115.973 148.798 122.67C153.793 126.84 159.718 127.874 166.039 127.868C169.89 127.865 173.129 127.29 176.083 124.658C177.73 123.74 179.27 122.629 180.652 121.337C181.042 124.088 181.68 126.472 185.265 126.835C188.257 127.141 190.848 126.458 193.599 125.422C192.784 123.696 191.82 122.171 191.624 120.193ZM166.587 111.996C167.713 111.996 168.626 112.908 168.626 114.035C168.626 115.161 167.713 116.076 166.587 116.076C165.461 116.076 164.548 115.162 164.548 114.035C164.548 112.907 165.46 111.996 166.587 111.996ZM163.146 116.673C163.956 116.673 164.609 117.327 164.609 118.136C164.609 118.944 163.956 119.601 163.146 119.601C162.337 119.601 161.681 118.945 161.681 118.136C161.681 117.326 162.337 116.673 163.146 116.673ZM159.714 113.527C160.316 113.527 160.804 114.016 160.804 114.617C160.804 115.217 160.316 115.707 159.714 115.707C159.113 115.707 158.624 115.219 158.624 114.617C158.624 114.014 159.113 113.527 159.714 113.527ZM155.553 124.125C154.723 124.125 154.05 123.452 154.05 122.623C154.05 121.794 154.723 121.12 155.553 121.12C156.383 121.12 157.056 121.793 157.056 122.623C157.056 123.453 156.383 124.125 155.553 124.125ZM157.568 118.729C155.741 116.093 154.372 112.384 150.953 112.398C148.013 112.411 146.065 116.095 148.16 118.303C149.426 119.638 152.565 119.304 151.882 117.158C149.104 118.256 149.613 114.021 152.167 115.329C154.371 116.46 152.942 120.251 150.54 120.464C144.848 120.963 144.557 110.617 151.576 111.381C154.486 111.696 155.805 113.996 157.15 116.277C158.323 118.266 159.514 120.241 161.79 120.877C161.919 121.448 161.501 121.329 161.07 121.288C159.557 121.145 158.502 120.078 157.568 118.729ZM170.156 123.564C167.807 125.564 165.084 126.385 162.273 125.94C161.363 125.795 160.442 125.518 159.524 125.106C159.83 124.844 160.141 124.579 160.463 124.315C163.033 122.214 166.112 120.208 169.427 120.051C169.338 120.36 169.008 120.556 168.748 120.711C167.204 121.638 165.317 122.192 163.664 123.267C163.008 123.694 162.372 124.169 161.79 124.695C165.499 125.904 168.952 123.405 171.901 121.493C172.116 121.727 170.405 123.349 170.156 123.564ZM176.194 123.619C175.545 123.619 175.018 123.093 175.018 122.445C175.018 121.797 175.545 121.271 176.194 121.271C176.844 121.271 177.368 121.797 177.368 122.445C177.368 123.093 176.842 123.619 176.194 123.619ZM171.08 118.914C169.993 118.6 168.605 118.156 167.982 117.162C168.576 117.289 169.206 117.356 169.856 117.364C173.098 117.411 176.804 116.016 178.834 113.61C179.05 113.356 179.246 113.089 179.422 112.813C180.031 111.853 180.58 110.378 179.897 109.781C179.652 109.567 179.249 109.463 178.631 109.54C177.697 109.653 177.27 110.334 176.444 110.555C175.909 107.67 178.524 106.45 180.234 107.336C181.038 107.755 181.643 108.64 181.62 110.04C181.572 112.947 179.246 115.23 176.708 116.689C175.802 117.211 174.871 117.629 174.007 117.932C173.701 118.039 173.49 117.859 173.536 118.277C173.54 118.311 173.546 118.352 173.554 118.398C181.827 118.538 185.938 110.244 184.019 102.877C183.812 102.087 182.617 99.2138 181.874 99.0219C181.639 98.9618 181.12 99.2056 180.501 99.5917C179.176 100.409 177.393 101.86 176.954 102.293C173.767 105.438 171.834 110.33 174.38 114.474C172.156 114.266 171.961 111.218 172.135 109.445C172.561 105.086 175.531 101.748 178.943 99.3299C179.187 99.1562 179.837 98.6959 180.481 98.2974C181.146 97.8865 181.804 97.5423 182.011 97.6453C182.985 98.1327 184.557 101.133 184.894 102.208C187.702 111.174 181.218 121.833 171.08 118.914ZM188.563 121.405C188.553 122.212 188.437 124.784 187.267 124.492C185.994 123.284 188.038 121.963 188.309 120.706C188.657 120.627 188.565 121.181 188.563 121.405ZM188.802 114.872C188.777 116.567 188.56 117.781 187.568 119.203C187.372 119.485 185.675 121.357 185.442 121.125C185.262 119.378 185.193 117.54 185.657 115.825C185.755 115.464 187.041 112.475 187.515 112.901C187.045 114.854 186.184 116.723 186.302 118.785C187.486 117.547 188.198 115.894 188.655 114.264C189.056 114.193 188.805 114.655 188.802 114.872Z" fill="#F80004"/>
<path d="M150.054 92.7853H142.227C142.326 84.8515 142.403 77.0051 142.422 69.3125H150.079L150.054 92.7853Z" fill="#3B2721"/>
<path d="M150.084 93.8906C150.026 94.4703 149.97 95.0508 149.925 95.6304H141.867C141.911 95.0483 141.954 94.4686 141.995 93.8906H150.084Z" fill="#3B2721"/>
<path d="M191.851 93.8906C191.835 94.4686 191.814 95.0483 191.791 95.6304H173.852C173.95 95.0524 174.031 94.4727 174.093 93.8906H191.85H191.851Z" fill="#3B2721"/>
<path d="M191.958 87.9352C191.895 87.8429 191.83 87.7499 191.764 87.6569C191.191 86.8335 190.627 86.043 190.072 85.2855C183.746 76.6393 178.609 72.0885 174.881 69.6966C174.844 69.6719 174.81 69.6489 174.777 69.6307C174.591 69.5196 174.4 69.4101 174.211 69.3047V87.2625C174.285 88.7445 174.302 90.2077 174.26 91.6197C174.25 91.9639 174.233 92.3089 174.211 92.6555H191.9C191.944 91.0681 191.966 89.4938 191.958 87.9352ZM178.543 78.3676L175.862 81.4585C175.789 79.5433 176.355 78.0909 178.543 78.3676ZM175.655 88.4761C175.276 85.7993 176.285 83.4527 178.134 81.568C178.332 81.3679 178.403 81.1761 178.749 81.2543C178.576 83.8965 177.876 86.8129 175.655 88.4761ZM177.585 89.9211C177.148 89.9269 177.267 88.2349 177.288 87.8717L179.133 87.6569C179.484 87.9977 177.816 89.5325 177.585 89.9211ZM182.885 80.7899L184.729 80.5594C185.084 80.8978 183.428 82.4474 183.201 82.8376C181.434 86.9759 182.867 81.153 182.885 80.7899ZM183.028 89.4749C183.178 86.8335 184.252 84.7594 186.458 83.0748C186.86 85.7499 185.473 87.2567 183.639 89.157C183.444 89.3596 183.377 89.5514 183.028 89.4749ZM185.308 91.1718L188.895 86.2843C188.982 88.1772 187.475 91.4254 185.308 91.1718Z" fill="#3B2721"/>
<path d="M175.758 66.2969C177.37 67.5122 179.18 68.9259 181.035 70.4681C179.388 69.0626 177.605 67.6324 175.758 66.2969Z" fill="#F80004"/>
<path d="M191.626 80.614C191.204 76.0402 189.968 71.4104 188.653 67.0234C187.122 61.921 184.962 56.77 180.916 53.1397C172.373 45.4758 166.58 35.9732 162.199 25.4686C161.741 25.2875 161.904 25.9454 161.891 26.1891C161.257 38.2729 154.399 50.8384 147.031 60.1425C154.127 58.229 163.565 53.5605 170.149 59.0054C171.674 60.266 172.848 61.9054 173.67 63.7168C174.134 64.7369 174.855 65.6196 175.75 66.2948C181.755 70.8184 187.483 75.6409 191.712 81.8936C191.703 81.4671 191.665 81.0405 191.626 80.614ZM182.995 70.4767C182.922 69.4894 182.796 68.5302 182.596 67.7167C182.575 67.7398 182.555 67.7604 182.533 67.7809L182.507 67.3849C182.344 66.825 182.14 66.3549 181.884 66.0181C180.148 63.7497 177.015 61.8922 174.97 59.3109C171.845 55.3645 170.714 50.9866 166.601 47.6602C165.877 47.0756 163.458 45.4124 162.682 45.181C162.389 45.0946 162.322 45.1876 162.389 45.4725C162.82 47.3547 165.014 49.493 166.708 50.3427V50.7519C162.818 50.1509 162.312 48.1369 161.348 44.8591C161.262 44.5602 161.468 44.5001 160.933 44.5602L155.978 53.8454C159.812 52.4769 164.956 49.8907 168.568 53.0195C163.103 51.5877 157.761 53.8824 153.09 56.5304L157.252 49.8578C160.073 44.4688 162.76 38.8946 163.616 32.7958L165.501 37.2017C167.649 41.9657 170.795 46.1328 174.347 49.9236C172.585 49.5424 170.94 47.6849 169.811 46.3082C167.385 43.3424 165.631 39.9164 163.922 36.5109L161.534 43.4042C164.138 44.6549 166.733 46.0793 168.781 48.1657C171.775 51.218 173.018 55.166 175.593 58.4809C177.408 60.8177 179.849 63.0276 182.188 64.7863C182.068 60.6456 181.49 55.6453 177.032 54.0537L179.059 58.1137C179.418 58.9742 180.637 60.2166 180.949 60.97C180.999 61.0919 180.986 61.3191 180.848 61.2755C177.763 59.2343 176.644 55.5234 174.966 52.4028C176.549 52.0932 178.203 53.0697 179.397 54.0603C181.736 55.996 182.582 58.4768 182.986 61.4097C183.073 62.0387 183.158 62.6686 183.238 63.3002C183.455 64.0428 183.578 64.8357 183.517 65.5891C183.731 67.4755 183.896 69.3684 183.973 71.2605L182.995 70.4767ZM185.081 67.6756L184.668 61.0713C184.963 61.1726 185.267 61.8288 185.386 62.103C186.142 63.837 186.582 66.2223 185.081 67.6756Z" fill="#3B2721"/>
</svg>
