<svg width="246" height="65" viewBox="0 0 246 65" fill="none" xmlns="http://www.w3.org/2000/svg">
<path d="M2.59863 32.501C2.7782 32.4322 2.9872 32.3647 3.22656 32.3066L3.25098 32.3008L3.27539 32.2939C4.9291 31.8484 6.2802 31.3143 7.30469 30.2178C8.26285 29.1923 8.74643 27.8469 9.23242 26.499V26.498C9.74436 25.0776 10.3254 23.4766 11.5752 21.5723L11.834 21.1875C12.8442 19.725 14.786 18.4102 17.2002 17.3105C19.561 16.2352 22.1177 15.4789 24.0615 14.9971L25.0684 14.7471L25.4443 13.7812C25.7482 13.0002 26.566 11.6387 28.5928 9.54297H28.5918C30.9116 7.1453 34.5604 5.76586 37.9775 5.0957L39.5918 4.77832V2.70508C39.6632 2.65352 39.7715 2.58392 39.9297 2.50879C40.5205 2.2282 41.4769 2.00006 42.6406 2L203.36 2C204.524 2.00004 205.48 2.22821 206.071 2.50879C206.229 2.58372 206.338 2.65259 206.409 2.7041V4.77734L208.024 5.09375C211.44 5.76223 215.088 7.14351 217.408 9.54102C219.434 11.6352 220.249 12.9971 220.554 13.7793L220.93 14.7461L221.938 14.9951C223.882 15.4761 226.439 16.2333 228.799 17.3086C231.062 18.3395 232.909 19.5597 233.964 20.9141L234.164 21.1865C235.595 23.2614 236.22 24.9819 236.766 26.4971V26.498C237.256 27.8568 237.744 29.2129 238.72 30.2432C239.758 31.3385 241.129 31.8681 242.809 32.3145L242.828 32.3203C242.917 32.343 243.009 32.3686 243.104 32.3975C243.212 32.4308 243.311 32.4667 243.4 32.501C243.221 32.5693 243.013 32.6356 242.774 32.6934L242.75 32.6992L242.726 32.7061C241.072 33.1516 239.721 33.6858 238.696 34.7822C237.738 35.8078 237.255 37.1531 236.769 38.501V38.502C236.223 40.0171 235.598 41.7377 234.167 43.8125C233.157 45.2757 231.215 46.5906 228.801 47.6904C226.44 48.766 223.883 49.5231 221.939 50.0049L220.93 50.2549L220.555 51.2246L220.417 51.5439C220.032 52.3536 219.186 53.6242 217.412 55.459C215.092 57.8565 211.444 59.2361 208.027 59.9063L206.412 60.2227V62.2959C206.341 62.3474 206.232 62.4163 206.074 62.4912C205.483 62.7718 204.527 63 203.363 63L42.6377 63C41.4739 63 40.5176 62.7718 39.9268 62.4912C39.769 62.4163 39.6603 62.3474 39.5889 62.2959V60.2227L37.9736 59.9062C34.5581 59.2378 30.9089 57.8575 28.5889 55.46L28.5898 55.459C26.5645 53.3648 25.7487 52.0029 25.4443 51.2207L25.0684 50.2539L24.0605 50.0049C22.1158 49.5239 19.5594 48.7667 17.1992 47.6914C14.9363 46.6605 13.0887 45.4403 12.0342 44.0859L11.834 43.8135C10.5819 41.9979 9.94725 40.4538 9.44238 39.0811L9.23242 38.5029C8.74211 37.1435 8.25529 35.7864 7.2793 34.7559C6.24129 33.6599 4.86909 33.13 3.18945 32.6836L3.16016 32.6758C3.04014 32.6458 2.9154 32.609 2.78223 32.5654C2.71758 32.544 2.65618 32.5229 2.59863 32.501Z" fill="#1D0903" stroke="#FF7476" stroke-width="4" stroke-miterlimit="10"/>
</svg>
