<svg width="1208" height="199" viewBox="0 0 1208 199" fill="none" xmlns="http://www.w3.org/2000/svg">
<path d="M7.97754 159.503C8.27519 159.246 8.68215 158.943 9.22461 158.618C10.6388 157.771 12.6779 156.934 15.2891 156.301L15.3809 156.279L15.4717 156.255C23.4941 154.093 29.5924 151.608 34.1592 146.721C38.4774 142.099 40.7088 135.982 43.1318 129.262L43.1328 129.261C45.8252 121.79 48.9699 113.109 56.1709 102.668C61.4894 94.967 71.4873 88.3006 83.4541 82.8496C95.2209 77.4898 107.921 73.7349 117.532 71.3525L121.307 70.417L122.717 66.792C124.367 62.5522 128.611 55.6127 138.659 45.2227H138.658C150.524 32.9586 168.976 26.0602 185.935 22.7344L191.991 21.5459V12.2461C192.203 11.9611 192.906 11.2024 194.968 10.2227C198.241 8.6675 203.29 7.5 209.27 7.5L998.029 7.5C1004.01 7.50006 1009.06 8.66754 1012.33 10.2227C1014.39 11.2016 1015.09 11.9596 1015.31 12.2451V21.542L1021.37 22.7275C1038.32 26.0456 1056.77 32.9513 1068.64 45.2158C1078.68 55.6002 1082.91 62.5408 1084.57 66.7852L1085.98 70.4121L1089.75 71.3457C1099.37 73.7241 1112.07 77.4775 1123.83 82.8369C1135.8 88.2872 1145.79 94.9554 1151.11 102.66C1158.31 113.102 1161.46 121.783 1164.15 129.254L1164.15 129.257C1166.6 136.031 1168.85 142.189 1173.24 146.83C1177.87 151.716 1184.07 154.185 1192.23 156.354L1192.3 156.373C1192.78 156.496 1193.27 156.635 1193.77 156.787C1196.62 157.663 1198.4 158.707 1199.32 159.506C1199.04 159.746 1198.64 160.044 1198.08 160.38C1196.67 161.227 1194.62 162.065 1192.01 162.699L1191.92 162.721L1191.83 162.745L1190.34 163.155C1183.05 165.227 1177.42 167.697 1173.14 172.279C1168.82 176.901 1166.59 183.018 1164.17 189.738L1164.17 189.739C1161.47 197.21 1158.33 205.891 1151.13 216.333C1145.81 224.037 1135.81 230.706 1123.84 236.157C1112.08 241.518 1099.38 245.273 1089.77 247.655L1085.98 248.593L1084.57 252.231C1082.99 256.326 1078.97 262.96 1069.58 272.82L1068.65 273.784C1056.79 286.048 1038.34 292.948 1021.38 296.273L1015.32 297.461V306.753C1015.11 307.037 1014.41 307.797 1012.34 308.777C1009.07 310.332 1004.02 311.5 998.044 311.5L209.254 311.5C203.275 311.5 198.227 310.332 194.953 308.777C192.889 307.797 192.186 307.037 191.976 306.753V297.458L185.916 296.272C168.962 292.954 150.51 286.049 138.644 273.784C128.601 263.4 124.368 256.459 122.717 252.215L121.306 248.588L117.528 247.654C107.911 245.276 95.2132 241.522 83.4492 236.163C71.4843 230.712 61.4885 224.043 56.1699 216.337L56.1689 216.338C48.9687 205.897 45.8251 197.216 43.1328 189.746L43.1318 189.744C40.6874 182.967 38.4384 176.806 34.042 172.164C29.4129 167.277 23.2171 164.808 15.0566 162.639L15.002 162.624L14.9473 162.61C14.2884 162.446 13.6189 162.247 12.9238 162.02C10.3025 161.15 8.76596 160.181 7.97754 159.503Z" fill="#1D0903" stroke="#FF7476" stroke-width="15" stroke-miterlimit="10"/>
</svg>
