<svg width="402" height="265" viewBox="0 0 402 265" fill="none" xmlns="http://www.w3.org/2000/svg">
<path d="M-90.8359 175.554C-92.1442 174.612 -92.896 172.82 -92.4775 170.981H-92.4766C-92.1673 169.647 -91.3349 168.657 -90.3447 168.139L-90.1797 168.052L-90.0186 167.958C-85.0073 165.043 -81.3688 161.609 -78.957 156.037C-76.9247 151.342 -75.8968 145.292 -74.6846 138.034V138.033C-73.3242 129.885 -71.7011 120.219 -68.0146 108.681C-62.5184 91.5008 -48.315 81.3732 -39.2197 76.5068L-35.6338 74.5879L-34.9121 70.585C-33.9846 65.4398 -31.7422 57.7197 -26.7529 46.583H-26.752C-20.9493 33.6368 -12.4598 27.2437 -5.55664 24.3213L-0.427734 22.1494V12.6943C-0.427734 10.1282 1.55113 8.40723 3.54395 8.40723L397.581 8.40723C399.574 8.40723 401.552 10.1281 401.552 12.6943V22.1465L406.688 24.3164C413.582 27.2293 422.072 33.6256 427.876 46.5742C432.864 57.7071 435.102 65.428 436.03 70.5771L436.752 74.585L440.345 76.5029C449.296 81.2819 463.193 91.1698 468.868 107.874L469.132 108.673C472.818 120.212 474.441 129.878 475.802 138.026L475.803 138.027C477.025 145.338 478.06 151.431 480.133 156.154C482.595 161.765 486.312 165.179 491.374 168.083L491.505 168.157C491.574 168.195 491.678 168.258 491.826 168.354C492.954 169.106 493.715 170.469 493.715 172C493.715 172.348 493.677 172.691 493.6 173.028L493.598 173.034C493.296 174.345 492.47 175.338 491.47 175.861L491.305 175.948L491.144 176.042L490.22 176.595C485.682 179.394 482.343 182.739 480.082 187.963C478.05 192.658 477.022 198.708 475.81 205.966V205.967C474.449 214.115 472.826 223.78 469.14 235.318V235.317C463.644 252.506 449.44 262.635 440.345 267.501L436.753 269.423L436.035 273.433C435.115 278.57 432.874 286.287 427.884 297.427C422.081 310.372 413.592 316.764 406.689 319.687L401.56 321.858V331.306C401.56 333.872 399.582 335.593 397.589 335.593L3.53613 335.593C1.54336 335.593 -0.43457 333.872 -0.43457 331.306V321.854L-5.57031 319.684C-12.4651 316.771 -20.9558 310.375 -26.7598 297.427L-26.7588 297.426C-31.7465 286.293 -33.9839 278.572 -34.9121 273.423L-35.6348 269.415L-39.2275 267.497C-48.3213 262.642 -62.5193 252.515 -68.0156 235.326C-71.7019 223.788 -73.3242 214.122 -74.6846 205.974V205.973C-75.9067 198.658 -76.9428 192.564 -79.0156 187.84C-81.4781 182.228 -85.1944 178.814 -90.2568 175.909L-90.3535 175.854L-90.4521 175.8C-90.5015 175.773 -90.6224 175.704 -90.8359 175.554Z" fill="#1D0903" stroke="#FF7476" stroke-width="16.8147" stroke-miterlimit="10"/>
<path d="M-93.293 178.964C-95.9912 177.021 -97.3709 173.501 -96.5713 170.027C-95.9843 167.501 -94.3677 165.501 -92.2949 164.415L-92.2129 164.371L-92.1318 164.324C-87.6983 161.746 -84.7888 158.926 -82.8154 154.367C-81.2547 150.761 -80.326 146.123 -79.2861 140.039L-78.8311 137.342C-77.4682 129.179 -75.8058 119.252 -72.0195 107.401C-66.0306 88.6791 -50.6684 77.8651 -41.2031 72.8008L-39.4102 71.8408L-39.0498 69.8398C-38.1086 64.6186 -35.9655 57.2141 -31.5098 46.9531L-30.5879 44.8633C-24.3333 30.9089 -15.0364 23.7694 -7.19629 20.4502L-4.63086 19.3643V12.6943C-4.63086 7.90694 -0.86964 4.2041 3.54395 4.2041L397.581 4.2041C401.995 4.2041 405.756 7.90694 405.756 12.6943V19.3594L408.323 20.4434C416.037 23.7023 425.168 30.6771 431.418 44.207L431.713 44.8555C436.799 56.2073 439.163 64.2609 440.167 69.832L440.528 71.8359L442.324 72.7949C451.792 77.8495 467.147 88.6634 473.136 107.394C476.922 119.245 478.585 129.171 479.948 137.334V137.335C481.201 144.827 482.166 150.327 483.982 154.465C485.993 159.047 488.964 161.853 493.466 164.437L493.498 164.456L493.531 164.474C493.718 164.576 493.918 164.698 494.138 164.842C496.482 166.394 497.919 169.098 497.919 172C497.919 172.655 497.847 173.315 497.695 173.972V173.975C497.117 176.492 495.499 178.496 493.42 179.585L493.338 179.629L493.257 179.676C488.823 182.254 485.914 185.074 483.94 189.633C482.38 193.239 481.45 197.877 480.41 203.961L479.956 206.658L479.427 209.803C478.144 217.333 476.457 226.229 473.144 236.599V236.598C467.155 255.328 451.793 266.143 442.328 271.207L440.532 272.168L440.174 274.173L439.971 275.246C438.871 280.758 436.489 288.5 431.72 299.146C425.465 313.099 416.168 320.239 408.328 323.558L405.764 324.644V331.306C405.764 336.093 402.002 339.796 397.589 339.796L3.53613 339.796C-0.877407 339.796 -4.63867 336.093 -4.63867 331.306V324.641L-7.20605 323.557C-14.9199 320.298 -24.0496 313.323 -30.2998 299.793L-30.5957 299.145C-35.6815 287.793 -38.0456 279.739 -39.0498 274.168L-39.4111 272.164L-41.207 271.205C-50.6753 266.15 -66.0296 255.336 -72.0186 236.605L-72.0195 236.606C-75.3325 226.237 -77.0196 217.341 -78.3027 209.811L-78.8311 206.666C-80.0835 199.17 -81.0491 193.669 -82.8652 189.529C-84.8762 184.946 -87.8462 182.139 -92.3486 179.556L-92.3975 179.527L-92.4463 179.501C-92.5698 179.434 -92.7012 179.357 -92.8418 179.268L-93.293 178.964Z" stroke="#CC0E3E" stroke-width="8.40733" stroke-miterlimit="10"/>
<path d="M-95.3154 181.824C-99.1865 179.052 -101.1 174.085 -99.9854 169.242H-99.9844C-99.1677 165.718 -96.8976 162.871 -93.9199 161.312L-93.9062 161.305L-93.8936 161.297C-89.9412 158.998 -87.6384 156.691 -86.0303 152.976C-84.4537 149.333 -83.5528 144.348 -82.2861 136.765C-80.9212 128.589 -79.2249 118.446 -75.3555 106.335C-68.9558 86.3279 -52.629 74.9412 -42.8555 69.7119L-42.5566 69.5518L-42.4971 69.2178C-41.4295 63.2954 -38.9528 54.9651 -33.7852 43.4307C-27.1537 28.6353 -17.1827 20.8744 -8.56152 17.2246L-8.13379 17.043V12.6943C-8.13379 6.05593 -2.88695 0.700195 3.54395 0.700195L397.581 0.700195C404.012 0.700195 409.259 6.05593 409.259 12.6943V17.0361L409.687 17.2168C418.307 20.8587 428.278 28.6274 434.909 43.4229C440.077 54.9572 442.547 63.2882 443.614 69.2109L443.675 69.5449L443.974 69.7041C453.754 74.9253 470.073 86.3124 476.473 106.327C479.858 116.924 481.581 126.015 482.873 133.599L483.403 136.757C484.681 144.401 485.588 149.406 487.19 153.057C488.825 156.781 491.173 159.083 495.209 161.398L495.22 161.404C495.364 161.484 495.507 161.567 495.649 161.653L496.073 161.923C499.426 164.144 501.422 167.959 501.422 172C501.422 172.797 501.345 173.604 501.184 174.412L501.109 174.759L501.029 175.087C500.157 178.458 497.93 181.177 495.045 182.688L495.031 182.695L495.018 182.703L494.296 183.135C490.78 185.296 488.663 187.541 487.155 191.024C485.776 194.211 484.914 198.427 483.871 204.511L483.411 207.235L482.88 210.394C481.634 217.707 479.989 226.42 476.837 236.535L476.48 237.665C470.081 257.68 453.754 269.067 443.98 274.296L443.682 274.456L443.622 274.79L443.406 275.929C442.242 281.766 439.762 289.763 434.917 300.577C428.286 315.372 418.315 323.133 409.693 326.783L409.267 326.964V331.306C409.267 337.944 404.02 343.3 397.589 343.3L3.53613 343.3C-2.89472 343.3 -8.1416 337.944 -8.1416 331.306V326.964L-8.56934 326.783C-17.1898 323.141 -27.1604 315.373 -33.792 300.577C-38.9596 289.043 -41.4295 280.712 -42.4971 274.789L-42.5576 274.456L-42.8564 274.296C-52.6366 269.075 -68.9557 257.688 -75.3555 237.673C-78.7412 227.076 -80.4629 217.985 -81.7549 210.401L-82.2861 207.243C-83.5639 199.596 -84.4701 194.588 -86.0723 190.937C-87.707 187.211 -90.0561 184.909 -94.0918 182.594L-94.0996 182.589L-94.1084 182.585C-94.5174 182.365 -94.919 182.105 -95.3154 181.824Z" stroke="#111418" stroke-width="1.40122" stroke-miterlimit="10"/>
</svg>
